<?xml version="1.0" encoding="UTF-8" standalone="no"?>
<svg width="183px" height="57px" viewBox="0 0 183 57" version="1.1" xmlns="http://www.w3.org/2000/svg" xmlns:xlink="http://www.w3.org/1999/xlink" xmlns:sketch="http://www.bohemiancoding.com/sketch/ns">
    <!-- Generator: Sketch 3.5.2 (25235) - http://www.bohemiancoding.com/sketch -->
    <title>ContributeButton</title>
    <desc>Created with Sketch.</desc>
    <defs>
        <filter x="-50%" y="-50%" width="200%" height="200%" filterUnits="objectBoundingBox" id="filter-1">
            <feOffset dx="0" dy="2" in="SourceAlpha" result="shadowOffsetOuter1"></feOffset>
            <feGaussianBlur stdDeviation="5.5" in="shadowOffsetOuter1" result="shadowBlurOuter1"></feGaussianBlur>
            <feColorMatrix values="0 0 0 0 0   0 0 0 0 0   0 0 0 0 0  0 0 0 0.144961504 0" in="shadowBlurOuter1" type="matrix" result="shadowMatrixOuter1"></feColorMatrix>
            <feMerge>
                <feMergeNode in="shadowMatrixOuter1"></feMergeNode>
                <feMergeNode in="SourceGraphic"></feMergeNode>
            </feMerge>
        </filter>
    </defs>
    <g id="Page-1" stroke="none" stroke-width="1" fill="none" fill-rule="evenodd" sketch:type="MSPage">
        <g id="Feed/Category-Screen" sketch:type="MSArtboardGroup" transform="translate(-756.000000, -169.000000)">
            <g id="Stream-Elements" sketch:type="MSLayerGroup" transform="translate(56.000000, 165.000000)">
                <g id="ContributeButton" transform="translate(711.000000, 13.000000)">
                    <rect id="Rectangle-4-Copy" fill="#6B756C" filter="url(#filter-1)" sketch:type="MSShapeGroup" x="0" y="0" width="161" height="35" rx="10"></rect>
                    <text id="Echo-Track" sketch:type="MSTextLayer" font-family="Open Sans" font-size="17" font-weight="bold" fill="#FFFFFF">
                        <tspan x="16.6687117" y="23.3255814">Contribute</tspan>
                    </text>
                    <g id="Song-Icon" transform="translate(115.000000, 6.000000)" sketch:type="MSShapeGroup">
                        <rect id="Rectangle-path" x="12.4262193" y="11.9623195" width="2.41254937" height="2.2737902"></rect>
                        <rect id="Rectangle-path" x="4.29768582" y="14.154313" width="2.41254937" height="2.2737902"></rect>
                        <path d="M21.6428425,2.82505538 L11.4863987,6.39617972 L11.4863987,12.4056798 L9.05432488,12.4056798 C8.19364028,12.4056798 7.49353881,13.0842232 7.49353881,13.9184921 L7.49353881,16.6639242 C7.49353881,17.4981222 8.19364028,18.1768073 9.05432488,18.1768073 L11.953523,18.1768073 C12.8142076,18.1768073 13.514236,17.4981222 13.514236,16.6639242 L13.514236,13.9184921 C13.514236,13.9132469 13.5135047,13.9081435 13.5134316,13.9029692 L13.5181116,13.9029692 L13.5181116,7.77679899 L19.6110565,5.63442208 L19.6110565,10.2136154 L17.1828583,10.2136154 C16.3221006,10.2136154 15.6220723,10.8923005 15.6220723,11.7264985 L15.6220723,14.4719306 C15.6220723,15.3061995 16.3221006,15.9848137 17.1828583,15.9848137 L20.0819834,15.9848137 C20.9425948,15.9848137 21.6427694,15.3061995 21.6427694,14.4719306 L21.6427694,11.7264985 C21.6427694,11.7128894 21.6410144,11.6995638 21.6406488,11.6860255 L21.6427694,11.6860255 L21.6427694,2.82505538 L21.6428425,2.82505538 Z M11.7102352,16.4281032 L9.29768582,16.4281032 L9.29768582,14.154313 L11.7102352,14.154313 L11.7102352,16.4281032 L11.7102352,16.4281032 Z M19.8387687,14.2361097 L17.4262193,14.2361097 L17.4262193,11.9623195 L19.8387687,11.9623195 L19.8387687,14.2361097 L19.8387687,14.2361097 Z" id="Shape" fill="#FFFFFF"></path>
                        <g id="noun_30453_cc" fill="#FFFFFF">
                            <g id="Group">
                                <path d="M15.0587629,1.89104938 C22.267732,1.89104938 28.132268,5.86944444 28.132268,10.7598765 C28.132268,15.6496914 22.2674227,19.6287037 15.0587629,19.6287037 L14.617732,19.6305556 L14.2852577,19.6314815 C13.7727835,19.6314815 13.4365979,19.6188272 12.911134,19.5435185 L11.8651546,19.4015432 L11.1937113,20.1734568 C10.8847423,20.5274691 9.30958763,21.7564815 7.57175258,22.5475309 C7.92556701,21.6592593 8.18628866,20.6904321 8.20886598,19.7324074 L8.21876289,19.679321 L8.21876289,19.5277778 L8.21876289,18.4416667 L7.20123711,17.9484568 C3.88701031,16.3388889 1.98525773,13.7179012 1.98525773,10.7598765 C1.98525773,5.86944444 7.85010309,1.89104938 15.0587629,1.89104938 L15.0587629,1.89104938 Z M15.0587629,0.117283951 C6.80690722,0.117283951 0.117525773,4.88240741 0.117525773,10.7595679 C0.117525773,14.4200617 2.40154639,17.6089506 6.35103093,19.5274691 C6.35103093,19.5496914 6.34329897,19.566358 6.34329897,19.5910494 C6.34329897,21.1814815 5.40525773,22.9296296 4.85536082,23.8296296 L4.85628866,23.8296296 C4.81298969,23.9262346 4.78670103,24.0320988 4.78670103,24.1453704 C4.78670103,24.591358 5.16494845,24.9493827 5.63350515,24.9493827 C5.7043299,24.9493827 5.8156701,24.9354938 5.8571134,24.9354938 C5.86701031,24.9354938 5.8728866,24.9354938 5.87195876,24.9376543 C8.79,24.4845679 11.9984536,22.0364198 12.6364948,21.2975309 C13.2934021,21.3907407 13.7362887,21.4046296 14.2852577,21.4046296 C14.5165979,21.4046296 14.7668041,21.4012346 15.0587629,21.4012346 C23.3109278,21.4012346 30,16.637037 30,10.7592593 C30,4.88240741 23.3109278,0.117283951 15.0587629,0.117283951 L15.0587629,0.117283951 L15.0587629,0.117283951 Z" id="Shape"></path>
                            </g>
                        </g>
                    </g>
                </g>
                <g id="Group-7" transform="translate(209.000000, 9.000000)"></g>
            </g>
        </g>
    </g>
</svg>